<?xml version="1.0" standalone="no"?>
<!DOCTYPE svg PUBLIC "-//W3C//DTD SVG 20010904//EN"
 "http://www.w3.org/TR/2001/REC-SVG-20010904/DTD/svg10.dtd">
<svg version="1.0" xmlns="http://www.w3.org/2000/svg"
 width="512.000000pt" height="512.000000pt" viewBox="0 0 512.000000 512.000000"
 preserveAspectRatio="xMidYMid meet">
<metadata>
Created by potrace 1.14, written by Peter Selinger 2001-2017
</metadata>
<g transform="translate(0.000000,512.000000) scale(0.100000,-0.100000)"
fill="#000000" stroke="none">
<path d="M1933 5068 c-32 -29 -60 -56 -63 -59 -3 -3 -61 -57 -130 -119 -69
-63 -130 -119 -136 -125 -6 -5 -51 -46 -99 -90 -49 -44 -117 -107 -152 -139
-35 -32 -73 -68 -85 -78 -13 -11 -63 -56 -112 -101 -49 -45 -94 -86 -100 -92
-67 -60 -237 -216 -257 -235 -14 -14 -48 -45 -75 -69 -27 -24 -76 -69 -110
-100 -33 -31 -102 -94 -154 -141 -52 -47 -121 -110 -154 -141 -34 -31 -83 -77
-111 -102 -27 -25 -70 -63 -93 -85 l-44 -39 16 -64 c19 -83 54 -237 60 -269 7
-37 194 -885 211 -955 7 -33 17 -75 20 -94 3 -19 8 -37 10 -40 2 -4 6 -26 10
-51 4 -25 8 -47 10 -50 4 -6 90 -393 111 -500 3 -13 14 -60 24 -105 10 -45 21
-92 24 -105 2 -14 10 -49 16 -78 7 -30 13 -59 14 -65 2 -7 11 -49 21 -94 l18
-83 91 -29 c166 -53 645 -204 1226 -388 96 -30 229 -72 295 -93 428 -136 511
-163 520 -164 6 -1 90 -28 188 -60 198 -64 176 -65 253 9 22 22 81 76 129 120
48 44 100 91 115 105 15 14 69 63 120 110 52 47 105 96 120 110 15 14 49 45
76 69 42 38 94 86 274 251 15 14 72 66 126 115 54 50 108 99 120 110 12 11 41
38 65 60 24 22 71 65 104 95 51 46 171 157 300 275 17 15 68 62 114 104 46 42
108 99 138 126 l54 50 -20 86 c-11 47 -22 96 -25 109 -7 37 -41 192 -64 295
-12 50 -23 101 -26 115 -3 14 -17 79 -31 145 -15 66 -28 129 -30 140 -3 11 -9
38 -15 60 -9 35 -57 255 -65 295 -3 16 -116 531 -140 640 -19 82 -54 237 -61
270 -3 14 -8 36 -10 50 -5 23 -23 103 -44 195 -6 22 -12 51 -14 65 -16 93 -17
94 -81 110 -16 4 -88 27 -160 50 -71 23 -265 84 -430 136 -165 52 -390 124
-500 159 -190 61 -481 153 -682 216 -51 16 -136 43 -188 59 -52 17 -137 43
-187 59 -149 47 -261 83 -274 88 -7 3 -39 -19 -71 -49z"/>
</g>
</svg>
